#!OML:ASF F:\twosubjects\two\Thursday\Session 1\justin.ASF
:FULLY-SPECIFIED
:DEGREES
303
root 6.56969 17.4659 -6.88159 20.2817 -0.778932 0.911915
lowerback 21.5641 0.153773 -0.205583
upperback 4.6692 0.299187 1.78604
thorax -6.95886 0.15731 1.97123
lowerneck -17.6633 -4.47968 -11.3197
upperneck 14.0361 -4.96983 9.81745
head 7.7678 -2.06625 4.53599
rclavicle 1.19271e-015 3.57812e-015
rhumerus -5.46072 40.2757 -83.0524
rradius 38.9512
rwrist 18.1713
rhand -54.0282 39.777
rfingers 7.12502
rthumb -26.4503 11.6027
lclavicle 1.19271e-015 3.57812e-015
lhumerus -4.81384 -41.3137 88.8558
lradius 35.7146
lwrist -30.8859
lhand -25.6228 61.4529
lfingers 7.12502
lthumb 0.910041 268.569
rfemur -34.4752 -3.80906 2.87455
rtibia 30.201
rfoot -13.2587 -10.9236
rtoes -27.9082
lfemur -26.5705 3.11079 -3.84473
ltibia 15.7393
lfoot -7.29715 2.83614
ltoes -29.5383
304
root 6.58022 17.4677 -6.88294 20.2271 -0.853161 0.835766
lowerback 21.7118 0.150222 -0.0698037
upperback 4.64922 0.325486 1.78523
thorax -7.05843 0.167956 1.88665
lowerneck -17.6008 -4.42748 -11.3559
upperneck 14.0232 -4.88834 9.78236
head 7.74334 -2.03433 4.54049
rclavicle -4.37326e-015 -1.35174e-014
rhumerus -5.59497 40.4646 -83.0352
rradius 39.147
rwrist 17.9718
rhand -54.1867 39.5222
rfingers 7.12502
rthumb -26.602 11.3708
lclavicle -4.37326e-015 -1.35174e-014
lhumerus -4.98454 -41.4484 88.8828
lradius 35.8485
lwrist -30.6828
lhand -25.8927 61.8287
lfingers 7.12502
lthumb 0.649386 268.193
rfemur -34.4729 -3.98553 3.00784
rtibia 30.2523
rfoot -13.3344 -10.7206
rtoes -27.9496
lfemur -26.4677 3.17034 -3.83329
ltibia 15.7275
lfoot -7.28571 2.87625
ltoes -30.1462
305
root 6.59218 17.4681 -6.88138 20.2342 -0.970649 0.87517
lowerback 21.83 0.200499 -0.00242903
upperback 4.58197 0.402682 1.73152
thorax -7.19564 0.204108 1.76979
lowerneck -17.474 -4.36416 -11.1547
upperneck 13.9671 -4.82319 9.56451
head 7.68434 -2.01546 4.44044
rclavicle -3.97569e-015 1.39149e-014
rhumerus -5.84293 40.6246 -83.0835
rradius 39.3132
rwrist 17.3758
rhand -54.3712 39.5665
rfingers 7.12502
rthumb -26.7786 11.442
lclavicle -3.97569e-015 1.39149e-014
lhumerus -5.18787 -41.3989 89.0611
lradius 35.947
lwrist -30.8181
lhand -25.6679 61.4651
lfingers 7.12502
lthumb 0.866484 268.557
rfemur -34.5391 -4.22216 3.01216
rtibia 30.3216
rfoot -13.3773 -10.4916
rtoes -28.1328
lfemur -26.4667 3.24352 -3.96342
ltibia 15.8021
lfoot -7.3107 2.96022
ltoes -30.5671
306
root 6.59255 17.4626 -6.88307 20.4337 -1.04019 0.987065
lowerback 21.6017 0.236522 -0.241108
upperback 4.57764 0.398139 1.77162
thorax -7.08216 0.206204 1.95006
lowerneck -17.4697 -4.28271 -10.9311
upperneck 13.8772 -4.71323 9.2879
head 7.62872 -1.97635 4.32131
rclavicle -2.38542e-015 1.19271e-015
rhumerus -5.85559 40.8725 -82.9615
rradius 39.4429
rwrist 17.1418
rhand -54.4479 39.3252
rfingers 7.12502
rthumb -26.852 11.212
lclavicle -2.38542e-015 1.19271e-015
lhumerus -5.15933 -41.0061 89.176
lradius 36.0607
lwrist -31.1281
lhand -25.4871 61.4623
lfingers 7.12502
lthumb 1.04115 268.56
rfemur -34.8498 -4.31758 2.91444
rtibia 30.4585
rfoot -13.3065 -10.54
rtoes -28.3369
lfemur -26.6645 3.35959 -4.12971
ltibia 15.7876
lfoot -7.27153 2.95216
ltoes -30.7005
307
root 6.58545 17.4512 -6.88495 20.5893 -1.27609 1.0699
lowerback 21.3727 0.334225 -0.726107
upperback 4.61738 0.425352 1.87713
thorax -6.9233 0.227122 2.33352
lowerneck -17.6477 -4.30137 -11.3539
upperneck 14.0388 -4.67428 9.58007
head 7.72654 -1.95012 4.49787
rclavicle -1.35174e-014 -1.90833e-014
rhumerus -5.77583 41.1456 -82.7453
rradius 39.5522
rwrist 17.2952
rhand -54.4378 38.988
rfingers 7.12502
rthumb -26.8423 10.8733
lclavicle -1.35174e-014 -1.90833e-014
lhumerus -5.05097 -40.4406 89.2623
lradius 36.1453
lwrist -31.4863
lhand -25.2531 61.9181
lfingers 7.12502
lthumb 1.26712 268.106
rfemur -35.2399 -4.20153 2.82587
rtibia 30.6422
rfoot -13.1568 -10.6886
rtoes -27.7505
lfemur -26.7351 3.55494 -4.28292
ltibia 15.6996
lfoot -7.12915 2.98705
ltoes -31.2835
308
root 6.58206 17.4419 -6.8791 20.5107 -1.60448 1.10816
lowerback 21.4894 0.488197 -0.987608
upperback 4.62535 0.564216 1.84822
thorax -6.98416 0.29816 2.41529
lowerneck -17.6093 -4.38828 -11.765
upperneck 14.1477 -4.77803 10.0113
head 7.78969 -1.9834 4.70341
rclavicle -7.95139e-016 -1.47101e-014
rhumerus -5.87955 41.0726 -82.7849
rradius 39.6088
rwrist 17.3231
rhand -54.5105 39.3299
rfingers 7.12502
rthumb -26.9119 11.2259
lclavicle -7.95139e-016 -1.47101e-014
lhumerus -5.2198 -39.9653 89.4252
lradius 36.2884
lwrist -32.0017
lhand -25.1448 61.7938
lfingers 7.12502
lthumb 1.37171 268.231
rfemur -35.4268 -3.91319 2.7143
rtibia 30.8826
rfoot -12.9935 -10.7934
rtoes -27.4921
lfemur -26.4578 3.465 -4.26186
ltibia 15.5492
lfoot -7.04086 3.20606
ltoes -30.2248
